<svg viewBox="0 0 24 24" fill="none">
  <path d="M19.5 3h-2.25v-.75a.75.75 0 1 0-1.5 0V3h-7.5v-.75a.75.75 0 0 0-1.5 0V3H4.5A1.5 1.5 0 0 0 3 4.5v15A1.5 1.5 0 0 0 4.5 21h15a1.5 1.5 0 0 0 1.5-1.5v-15A1.5 1.5 0 0 0 19.5 3ZM6.75 4.5v.75a.75.75 0 0 0 1.5 0V4.5h7.5v.75a.75.75 0 1 0 1.5 0V4.5h2.25v3h-15v-3h2.25Zm12.75 15h-15V9h15v10.5Zm-3.594-8.03a.747.747 0 0 1 0 1.06l-4.5 4.5a.747.747 0 0 1-1.062 0l-2.25-2.25a.75.75 0 1 1 1.062-1.06l1.719 1.72 3.97-3.97a.747.747 0 0 1 1.06 0Z" fill="currentcolor"/>
</svg>
